<?xml version="1.0" encoding="utf-8"?>
<!-- Generator: Adobe Illustrator 28.0.0, SVG Export Plug-In . SVG Version: 6.00 Build 0)  -->
<svg version="1.1" id="TAT" xmlns="http://www.w3.org/2000/svg" xmlns:xlink="http://www.w3.org/1999/xlink" x="0px" y="0px"
	 viewBox="0 0 288 288" style="enable-background:new 0 0 288 288;" xml:space="preserve">
<style type="text/css">
	.st0{fill:#3A3B3B;}
</style>
<path id="button" class="st0" d="M156.2,140.8v65.9c0,0.6-0.5,1.1-1.1,1.1h-8.5c-7.1,0-12.9-5.8-12.9-12.9v-31.6L156.2,140.8z"/>
<path id="upper_00000135659776432128423260000004837408769869680262_" class="st0" d="M156.1,102.9v10.3l-22.6,22.6v-32.9H156.1z"/>
<path id="top" class="st0" d="M201.7,81.9c0,11.6-9.4,21-21,21H88c-0.4,0-0.9-0.2-1.2-0.5c-0.3-0.4-0.5-0.7-0.5-1.2
	c0-11.6,9.4-21,21-21h92.8c0.4,0,0.9,0.2,1.2,0.5C201.6,81,201.7,81.4,201.7,81.9z"/>
</svg>
